<?xml version="1.0" encoding="utf-8"?>
<!-- Generator: Adobe Illustrator 26.1.0, SVG Export Plug-In . SVG Version: 6.00 Build 0)  -->
<svg version="1.1" id="Layer_1" xmlns="http://www.w3.org/2000/svg" xmlns:xlink="http://www.w3.org/1999/xlink" x="0px" y="0px"
	 viewBox="0 0 1000 1000" style="enable-background:new 0 0 1000 1000;" xml:space="preserve">
<style type="text/css">
	.st0{fill:none;}
	.st1{fill:#FFFFFF;}
</style>
<rect x="660.57" y="586.61" class="st0" width="2.25" height="1.12"/>
<g>
	<g>
		<path d="M272.43,704.55c-35.2,0-57.9-25.06-50.61-55.86l16.69-70.52c7.29-30.8,41.85-55.86,77.05-55.86h79.22
			c9.51,0,18.86-6.77,20.83-15.1l16.57-70.03c7.29-30.8,41.85-55.86,77.05-55.86h80.59c9.51,0,18.85-6.77,20.82-15.1l16.69-70.53
			c7.29-30.8,41.85-55.86,77.05-55.86h80.62c35.2,0,57.91,25.06,50.62,55.86l-83.52,353.01c-7.29,30.8-41.85,55.86-77.05,55.86
			H272.43z"/>
		<path d="M271.86,704.2c-35.2,0-57.9-25.06-50.61-55.86l16.69-70.52c7.29-30.8,41.85-55.86,77.05-55.86h79.22
			c9.51,0,18.86-6.77,20.83-15.1l16.57-70.03c7.29-30.8,41.85-55.86,77.05-55.86h80.59c9.51,0,18.85-6.77,20.82-15.1l16.69-70.53
			c7.29-30.8,41.85-55.86,77.05-55.86h80.62c35.2,0,57.91,25.06,50.62,55.86l-83.52,353.01c-7.29,30.8-41.85,55.86-77.05,55.86
			H271.86z"/>
		<path d="M271.3,703.85c-35.2,0-57.9-25.06-50.61-55.86l16.69-70.52c7.29-30.8,41.85-55.86,77.05-55.86h79.22
			c9.51,0,18.86-6.77,20.83-15.1l16.57-70.03c7.29-30.8,41.85-55.86,77.05-55.86h80.59c9.51,0,18.85-6.77,20.82-15.1l16.69-70.53
			c7.29-30.8,41.85-55.86,77.05-55.86h80.62c35.2,0,57.91,25.06,50.62,55.86l-83.52,353.01c-7.29,30.8-41.85,55.86-77.05,55.86
			H271.3z"/>
		<path d="M270.73,703.5c-35.2,0-57.9-25.06-50.61-55.86l16.69-70.52c7.29-30.8,41.85-55.86,77.05-55.86h79.22
			c9.51,0,18.86-6.77,20.83-15.1l16.57-70.03c7.29-30.8,41.85-55.86,77.05-55.86h80.59c9.51,0,18.85-6.77,20.82-15.1l16.69-70.53
			c7.29-30.8,41.85-55.86,77.05-55.86h80.62c35.2,0,57.91,25.06,50.62,55.86l-83.52,353.01c-7.29,30.8-41.85,55.86-77.05,55.86
			H270.73z"/>
		<path d="M270.16,703.16c-35.2,0-57.9-25.06-50.61-55.86l16.69-70.52c7.29-30.8,41.85-55.86,77.05-55.86h79.22
			c9.51,0,18.86-6.77,20.83-15.1l16.57-70.03c7.29-30.8,41.85-55.86,77.05-55.86h80.59c9.51,0,18.85-6.77,20.82-15.1l16.69-70.53
			c7.29-30.8,41.85-55.86,77.05-55.86h80.62c35.2,0,57.91,25.06,50.62,55.86L749.8,647.29c-7.29,30.8-41.85,55.86-77.05,55.86
			H270.16z"/>
		<path d="M269.59,702.81c-35.2,0-57.9-25.06-50.61-55.86l16.69-70.52c7.29-30.8,41.85-55.86,77.05-55.86h79.22
			c9.51,0,18.86-6.77,20.83-15.1l16.57-70.03c7.29-30.8,41.85-55.86,77.05-55.86h80.59c9.51,0,18.85-6.77,20.82-15.1l16.69-70.53
			c7.29-30.8,41.85-55.86,77.05-55.86h80.62c35.2,0,57.91,25.06,50.62,55.86l-83.52,353.01c-7.29,30.8-41.85,55.86-77.05,55.86
			H269.59z"/>
		<path d="M269.02,702.46c-35.2,0-57.9-25.06-50.61-55.86l16.69-70.52c7.29-30.8,41.85-55.86,77.05-55.86h79.22
			c9.51,0,18.86-6.77,20.83-15.1l16.57-70.03c7.29-30.8,41.85-55.86,77.05-55.86h80.59c9.51,0,18.85-6.77,20.82-15.1l16.69-70.53
			c7.29-30.8,41.85-55.86,77.05-55.86h80.62c35.2,0,57.91,25.06,50.62,55.86l-83.52,353.01c-7.29,30.8-41.85,55.86-77.05,55.86
			H269.02z"/>
		<path d="M268.45,702.11c-35.2,0-57.9-25.06-50.61-55.86l16.69-70.52c7.29-30.8,41.85-55.86,77.05-55.86h79.22
			c9.51,0,18.86-6.77,20.83-15.1l16.57-70.03c7.29-30.8,41.85-55.86,77.05-55.86h80.59c9.51,0,18.85-6.77,20.82-15.1l16.69-70.53
			c7.29-30.8,41.85-55.86,77.05-55.86H781c35.2,0,57.91,25.06,50.62,55.86L748.1,646.25c-7.29,30.8-41.85,55.86-77.05,55.86H268.45z
			"/>
		<path d="M267.89,701.76c-35.2,0-57.9-25.06-50.61-55.86l16.69-70.52c7.29-30.8,41.85-55.86,77.05-55.86h79.22
			c9.51,0,18.86-6.77,20.83-15.1l16.57-70.03c7.29-30.8,41.85-55.86,77.05-55.86h80.59c9.51,0,18.85-6.77,20.82-15.1l16.69-70.53
			c7.29-30.8,41.85-55.86,77.05-55.86h80.62c35.2,0,57.91,25.06,50.62,55.86L747.53,645.9c-7.29,30.8-41.85,55.86-77.05,55.86
			H267.89z"/>
		<path d="M267.32,701.41c-35.2,0-57.9-25.06-50.61-55.86l16.69-70.52c7.29-30.8,41.85-55.86,77.05-55.86h79.22
			c9.51,0,18.86-6.77,20.83-15.1l16.57-70.03c7.29-30.8,41.85-55.86,77.05-55.86h80.59c9.51,0,18.85-6.77,20.82-15.1l16.69-70.53
			c7.29-30.8,41.85-55.86,77.05-55.86h80.62c35.2,0,57.91,25.06,50.62,55.86l-83.52,353.01c-7.29,30.8-41.85,55.86-77.05,55.86
			H267.32z"/>
		<path d="M266.75,701.06c-35.2,0-57.9-25.06-50.61-55.86l16.69-70.52c7.29-30.8,41.85-55.86,77.05-55.86h79.22
			c9.51,0,18.86-6.77,20.83-15.1l16.57-70.03c7.29-30.8,41.85-55.86,77.05-55.86h80.59c9.51,0,18.85-6.77,20.82-15.1l16.69-70.53
			c7.29-30.8,41.85-55.86,77.05-55.86h80.62c35.2,0,57.91,25.06,50.62,55.86L746.39,645.2c-7.29,30.8-41.85,55.86-77.05,55.86
			H266.75z"/>
		<path d="M266.18,700.72c-35.2,0-57.9-25.06-50.61-55.86l16.69-70.52c7.29-30.8,41.85-55.86,77.05-55.86h79.22
			c9.51,0,18.86-6.77,20.83-15.1l16.57-70.03c7.29-30.8,41.85-55.86,77.05-55.86h80.59c9.51,0,18.85-6.77,20.82-15.1l16.69-70.53
			c7.29-30.8,41.85-55.86,77.05-55.86h80.62c35.2,0,57.91,25.06,50.62,55.86l-83.52,353.01c-7.29,30.8-41.85,55.86-77.05,55.86
			H266.18z"/>
		<path d="M265.61,700.37c-35.2,0-57.9-25.06-50.61-55.86l16.69-70.52c7.29-30.8,41.85-55.86,77.05-55.86h79.22
			c9.51,0,18.86-6.77,20.83-15.1l16.57-70.03c7.29-30.8,41.85-55.86,77.05-55.86h80.59c9.51,0,18.85-6.77,20.82-15.1l16.69-70.53
			c7.29-30.8,41.85-55.86,77.05-55.86h80.62c35.2,0,57.91,25.06,50.62,55.86L745.26,644.5c-7.29,30.8-41.85,55.86-77.05,55.86
			H265.61z"/>
		<path d="M265.04,700.02c-35.2,0-57.9-25.06-50.61-55.86l16.69-70.52c7.29-30.8,41.85-55.86,77.05-55.86h79.22
			c9.51,0,18.86-6.77,20.83-15.1l16.57-70.03c7.29-30.8,41.85-55.86,77.05-55.86h80.59c9.51,0,18.85-6.77,20.82-15.1l16.69-70.53
			c7.29-30.8,41.85-55.86,77.05-55.86h80.62c35.2,0,57.91,25.06,50.62,55.86l-83.52,353.01c-7.29,30.8-41.85,55.86-77.05,55.86
			H265.04z"/>
		<path d="M264.47,699.67c-35.2,0-57.9-25.06-50.61-55.86l16.69-70.52c7.29-30.8,41.85-55.86,77.05-55.86h79.22
			c9.51,0,18.86-6.77,20.83-15.1l16.57-70.03c7.29-30.8,41.85-55.86,77.05-55.86h80.59c9.51,0,18.85-6.77,20.82-15.1l16.69-70.53
			c7.29-30.8,41.85-55.86,77.05-55.86h80.62c35.2,0,57.91,25.06,50.62,55.86l-83.52,353.01c-7.29,30.8-41.85,55.86-77.05,55.86
			H264.47z"/>
		<path d="M263.91,699.32c-35.2,0-57.9-25.06-50.61-55.86l16.69-70.52c7.29-30.8,41.85-55.86,77.05-55.86h79.22
			c9.51,0,18.86-6.77,20.83-15.1l16.57-70.03c7.29-30.8,41.85-55.86,77.05-55.86h80.59c9.51,0,18.85-6.77,20.82-15.1l16.69-70.53
			c7.29-30.8,41.85-55.86,77.05-55.86h80.62c35.2,0,57.91,25.06,50.62,55.86l-83.52,353.01c-7.29,30.8-41.85,55.86-77.05,55.86
			H263.91z"/>
		<path d="M263.34,698.97c-35.2,0-57.9-25.06-50.61-55.86l16.69-70.52c7.29-30.8,41.85-55.86,77.05-55.86h79.22
			c9.51,0,18.86-6.77,20.83-15.1l16.57-70.03c7.29-30.8,41.85-55.86,77.05-55.86h80.59c9.51,0,18.85-6.77,20.82-15.1l16.69-70.53
			c7.29-30.8,41.85-55.86,77.05-55.86h80.62c35.2,0,57.91,25.06,50.62,55.86l-83.52,353.01c-7.29,30.8-41.85,55.86-77.05,55.86
			H263.34z"/>
		<path d="M262.77,698.62c-35.2,0-57.9-25.06-50.61-55.86l16.69-70.52c7.29-30.8,41.85-55.86,77.05-55.86h79.22
			c9.51,0,18.86-6.77,20.83-15.1l16.57-70.03c7.29-30.8,41.85-55.86,77.05-55.86h80.59c9.51,0,18.85-6.77,20.82-15.1l16.69-70.53
			c7.29-30.8,41.85-55.86,77.05-55.86h80.62c35.2,0,57.91,25.06,50.62,55.86l-83.52,353.01c-7.29,30.8-41.85,55.86-77.05,55.86
			H262.77z"/>
		<path d="M262.2,698.28c-35.2,0-57.9-25.06-50.61-55.86l16.69-70.52c7.29-30.8,41.85-55.86,77.05-55.86h79.22
			c9.51,0,18.86-6.77,20.83-15.1l16.57-70.03c7.29-30.8,41.85-55.86,77.05-55.86h80.59c9.51,0,18.85-6.77,20.82-15.1l16.69-70.53
			c7.29-30.8,41.85-55.86,77.05-55.86h80.62c35.2,0,57.91,25.06,50.62,55.86l-83.52,353.01c-7.29,30.8-41.85,55.86-77.05,55.86
			H262.2z"/>
		<path d="M261.63,697.93c-35.2,0-57.9-25.06-50.61-55.86l16.69-70.52c7.29-30.8,41.85-55.86,77.05-55.86h79.22
			c9.51,0,18.86-6.77,20.83-15.1l16.57-70.03c7.29-30.8,41.85-55.86,77.05-55.86H579c9.51,0,18.85-6.77,20.82-15.1l16.69-70.53
			c7.29-30.8,41.85-55.86,77.05-55.86h80.62c35.2,0,57.91,25.06,50.62,55.86l-83.52,353.01c-7.29,30.8-41.85,55.86-77.05,55.86
			H261.63z"/>
		<path d="M261.06,697.58c-35.2,0-57.9-25.06-50.61-55.86l16.69-70.52c7.29-30.8,41.85-55.86,77.05-55.86h79.22
			c9.51,0,18.86-6.77,20.83-15.1l16.57-70.03c7.29-30.8,41.85-55.86,77.05-55.86h80.59c9.51,0,18.85-6.77,20.82-15.1l16.69-70.53
			c7.29-30.8,41.85-55.86,77.05-55.86h80.62c35.2,0,57.91,25.06,50.62,55.86l-83.52,353.01c-7.29,30.8-41.85,55.86-77.05,55.86
			H261.06z"/>
		<path d="M260.49,697.23c-35.2,0-57.9-25.06-50.61-55.86l16.69-70.52c7.29-30.8,41.85-55.86,77.05-55.86h79.22
			c9.51,0,18.86-6.77,20.83-15.1l16.57-70.03c7.29-30.8,41.85-55.86,77.05-55.86h80.59c9.51,0,18.85-6.77,20.82-15.1l16.69-70.53
			c7.29-30.8,41.85-55.86,77.05-55.86h80.62c35.2,0,57.91,25.06,50.62,55.86l-83.52,353.01c-7.29,30.8-41.85,55.86-77.05,55.86
			H260.49z"/>
		<path d="M259.93,696.88c-35.2,0-57.9-25.06-50.61-55.86L226,570.49c7.29-30.8,41.85-55.86,77.05-55.86h79.22
			c9.51,0,18.86-6.77,20.83-15.1l16.57-70.03c7.29-30.8,41.85-55.86,77.05-55.86h80.59c9.51,0,18.85-6.77,20.82-15.1l16.69-70.53
			c7.29-30.8,41.85-55.86,77.05-55.86h80.62c35.2,0,57.91,25.06,50.62,55.86l-83.52,353.01c-7.29,30.8-41.85,55.86-77.05,55.86
			H259.93z"/>
		<path d="M259.36,696.53c-35.2,0-57.9-25.06-50.61-55.86l16.69-70.52c7.29-30.8,41.85-55.86,77.05-55.86h79.22
			c9.51,0,18.86-6.77,20.83-15.1l16.57-70.03c7.29-30.8,41.85-55.86,77.05-55.86h80.59c9.51,0,18.85-6.77,20.82-15.1l16.69-70.53
			c7.29-30.8,41.85-55.86,77.05-55.86h80.62c35.2,0,57.91,25.06,50.62,55.86L739,640.67c-7.29,30.8-41.85,55.86-77.05,55.86H259.36z
			"/>
		<path d="M258.79,696.18c-35.2,0-57.9-25.06-50.61-55.86l16.69-70.52c7.29-30.8,41.85-55.86,77.05-55.86h79.22
			c9.51,0,18.86-6.77,20.83-15.1l16.57-70.03c7.29-30.8,41.85-55.86,77.05-55.86h80.59c9.51,0,18.85-6.77,20.82-15.1l16.69-70.53
			c7.29-30.8,41.85-55.86,77.05-55.86h80.62c35.2,0,57.91,25.06,50.62,55.86l-83.52,353.01c-7.29,30.8-41.85,55.86-77.05,55.86
			H258.79z"/>
		<path d="M258.22,695.84c-35.2,0-57.9-25.06-50.61-55.86l16.69-70.52c7.29-30.8,41.85-55.86,77.05-55.86h79.22
			c9.51,0,18.86-6.77,20.83-15.1l16.57-70.03c7.29-30.8,41.85-55.86,77.05-55.86h80.59c9.51,0,18.85-6.77,20.82-15.1l16.69-70.53
			c7.29-30.8,41.85-55.86,77.05-55.86h80.62c35.2,0,57.91,25.06,50.62,55.86l-83.52,353.01c-7.29,30.8-41.85,55.86-77.05,55.86
			H258.22z"/>
		<path d="M257.65,695.49c-35.2,0-57.9-25.06-50.61-55.86l16.69-70.52c7.29-30.8,41.85-55.86,77.05-55.86h79.22
			c9.51,0,18.86-6.77,20.83-15.1l16.57-70.03c7.29-30.8,41.85-55.86,77.05-55.86h80.59c9.51,0,18.85-6.77,20.82-15.1l16.69-70.53
			c7.29-30.8,41.85-55.86,77.05-55.86h80.62c35.2,0,57.91,25.06,50.62,55.86L737.3,639.62c-7.29,30.8-41.85,55.86-77.05,55.86
			H257.65z"/>
		<path d="M257.08,695.14c-35.2,0-57.9-25.06-50.61-55.86l16.69-70.52c7.29-30.8,41.85-55.86,77.05-55.86h79.22
			c9.51,0,18.86-6.77,20.83-15.1l16.57-70.03c7.29-30.8,41.85-55.86,77.05-55.86h80.59c9.51,0,18.85-6.77,20.82-15.1l16.69-70.53
			c7.29-30.8,41.85-55.86,77.05-55.86h80.62c35.2,0,57.91,25.06,50.62,55.86l-83.52,353.01c-7.29,30.8-41.85,55.86-77.05,55.86
			H257.08z"/>
		<path d="M256.52,694.79c-35.2,0-57.9-25.06-50.61-55.86l16.69-70.52c7.29-30.8,41.85-55.86,77.05-55.86h79.22
			c9.51,0,18.86-6.77,20.83-15.1l16.57-70.03c7.29-30.8,41.85-55.86,77.05-55.86h80.59c9.51,0,18.85-6.77,20.82-15.1l16.69-70.53
			c7.29-30.8,41.85-55.86,77.05-55.86h80.62c35.2,0,57.91,25.06,50.62,55.86l-83.52,353.01c-7.29,30.8-41.85,55.86-77.05,55.86
			H256.52z"/>
		<path d="M255.95,694.44c-35.2,0-57.9-25.06-50.61-55.86l16.69-70.52c7.29-30.8,41.85-55.86,77.05-55.86h79.22
			c9.51,0,18.86-6.77,20.83-15.1l16.57-70.03c7.29-30.8,41.85-55.86,77.05-55.86h80.59c9.51,0,18.85-6.77,20.82-15.1l16.69-70.53
			c7.29-30.8,41.85-55.86,77.05-55.86h80.62c35.2,0,57.91,25.06,50.62,55.86l-83.52,353.01c-7.29,30.8-41.85,55.86-77.05,55.86
			H255.95z"/>
		<path d="M255.38,694.09c-35.2,0-57.9-25.06-50.61-55.86l16.69-70.52c7.29-30.8,41.85-55.86,77.05-55.86h79.22
			c9.51,0,18.86-6.77,20.83-15.1l16.57-70.03c7.29-30.8,41.85-55.86,77.05-55.86h80.59c9.51,0,18.85-6.77,20.82-15.1l16.69-70.53
			c7.29-30.8,41.85-55.86,77.05-55.86h80.62c35.2,0,57.91,25.06,50.62,55.86l-83.52,353.01c-7.29,30.8-41.85,55.86-77.05,55.86
			H255.38z"/>
		<path d="M254.81,693.74c-35.2,0-57.9-25.06-50.61-55.86l16.69-70.52c7.29-30.8,41.85-55.86,77.05-55.86h79.22
			c9.51,0,18.86-6.77,20.83-15.1l16.57-70.03c7.29-30.8,41.85-55.86,77.05-55.86h80.59c9.51,0,18.85-6.77,20.82-15.1l16.69-70.53
			c7.29-30.8,41.85-55.86,77.05-55.86h80.62c35.2,0,57.91,25.06,50.62,55.86l-83.52,353.01c-7.29,30.8-41.85,55.86-77.05,55.86
			H254.81z"/>
		<path d="M254.24,693.4c-35.2,0-57.9-25.06-50.61-55.86l16.69-70.52c7.29-30.8,41.85-55.86,77.05-55.86h79.22
			c9.51,0,18.86-6.77,20.83-15.1l16.57-70.03c7.29-30.8,41.85-55.86,77.05-55.86h80.59c9.51,0,18.85-6.77,20.82-15.1l16.69-70.53
			c7.29-30.8,41.85-55.86,77.05-55.86h80.62c35.2,0,57.91,25.06,50.62,55.86l-83.52,353.01c-7.29,30.8-41.85,55.86-77.05,55.86
			H254.24z"/>
		<path d="M253.67,693.05c-35.2,0-57.9-25.06-50.61-55.86l16.69-70.52c7.29-30.8,41.85-55.86,77.05-55.86h79.22
			c9.51,0,18.86-6.77,20.83-15.1l16.57-70.03c7.29-30.8,41.85-55.86,77.05-55.86h80.59c9.51,0,18.85-6.77,20.82-15.1l16.69-70.53
			c7.29-30.8,41.85-55.86,77.05-55.86h80.62c35.2,0,57.91,25.06,50.62,55.86l-83.52,353.01c-7.29,30.8-41.85,55.86-77.05,55.86
			H253.67z"/>
		<path d="M253.1,692.7c-35.2,0-57.9-25.06-50.61-55.86l16.69-70.52c7.29-30.8,41.85-55.86,77.05-55.86h79.22
			c9.51,0,18.86-6.77,20.83-15.1l16.57-70.03c7.29-30.8,41.85-55.86,77.05-55.86h80.59c9.51,0,18.85-6.77,20.82-15.1l16.69-70.53
			c7.29-30.8,41.85-55.86,77.05-55.86h80.62c35.2,0,57.91,25.06,50.62,55.86l-83.52,353.01c-7.29,30.8-41.85,55.86-77.05,55.86
			H253.1z"/>
		<path d="M252.54,692.35c-35.2,0-57.9-25.06-50.61-55.86l16.69-70.52c7.29-30.8,41.85-55.86,77.05-55.86h79.22
			c9.51,0,18.86-6.77,20.83-15.1l16.57-70.03c7.29-30.8,41.85-55.86,77.05-55.86h80.59c9.51,0,18.85-6.77,20.82-15.1l16.69-70.53
			c7.29-30.8,41.85-55.86,77.05-55.86h80.62c35.2,0,57.91,25.06,50.62,55.86l-83.52,353.01c-7.29,30.8-41.85,55.86-77.05,55.86
			H252.54z"/>
		<path d="M251.97,692c-35.2,0-57.9-25.06-50.61-55.86l16.69-70.52c7.29-30.8,41.85-55.86,77.05-55.86h79.22
			c9.51,0,18.86-6.77,20.83-15.1l16.57-70.03c7.29-30.8,41.85-55.86,77.05-55.86h80.59c9.51,0,18.85-6.77,20.82-15.1l16.69-70.53
			c7.29-30.8,41.85-55.86,77.05-55.86h80.62c35.2,0,57.91,25.06,50.62,55.86l-83.52,353.01c-7.29,30.8-41.85,55.86-77.05,55.86
			H251.97z"/>
		<path d="M251.4,691.65c-35.2,0-57.9-25.06-50.61-55.86l16.69-70.52c7.29-30.8,41.85-55.86,77.05-55.86h79.22
			c9.51,0,18.86-6.77,20.83-15.1l16.57-70.03c7.29-30.8,41.85-55.86,77.05-55.86h80.59c9.51,0,18.85-6.77,20.82-15.1l16.69-70.53
			c7.29-30.8,41.85-55.86,77.05-55.86h80.62c35.2,0,57.91,25.06,50.62,55.86l-83.52,353.01c-7.29,30.8-41.85,55.86-77.05,55.86
			H251.4z"/>
		<path d="M250.83,691.3c-35.2,0-57.9-25.06-50.61-55.86l16.69-70.52c7.29-30.8,41.85-55.86,77.05-55.86h79.22
			c9.51,0,18.86-6.77,20.83-15.1l16.57-70.03c7.29-30.8,41.85-55.86,77.05-55.86h80.59c9.51,0,18.85-6.77,20.82-15.1l16.69-70.53
			c7.29-30.8,41.85-55.86,77.05-55.86h80.62c35.2,0,57.91,25.06,50.62,55.86l-83.52,353.01c-7.29,30.8-41.85,55.86-77.05,55.86
			H250.83z"/>
		<path d="M250.26,690.96c-35.2,0-57.9-25.06-50.61-55.86l16.69-70.52c7.29-30.8,41.85-55.86,77.05-55.86h79.22
			c9.51,0,18.86-6.77,20.83-15.1L410,423.57c7.29-30.8,41.85-55.86,77.05-55.86h80.59c9.51,0,18.85-6.77,20.82-15.1l16.69-70.53
			c7.29-30.8,41.85-55.86,77.05-55.86h80.62c35.2,0,57.91,25.06,50.62,55.86l-83.52,353.01c-7.29,30.8-41.85,55.86-77.05,55.86
			H250.26z"/>
		<path d="M249.69,690.61c-35.2,0-57.9-25.06-50.61-55.86l16.69-70.52c7.29-30.8,41.85-55.86,77.05-55.86h79.22
			c9.51,0,18.86-6.77,20.83-15.1l16.57-70.03c7.29-30.8,41.85-55.86,77.05-55.86h80.59c9.51,0,18.85-6.77,20.82-15.1l16.69-70.53
			c7.29-30.8,41.85-55.86,77.05-55.86h80.62c35.2,0,57.91,25.06,50.62,55.86l-83.52,353.01c-7.29,30.8-41.85,55.86-77.05,55.86
			H249.69z"/>
		<path d="M249.12,690.26c-35.2,0-57.9-25.06-50.61-55.86l16.69-70.52c7.29-30.8,41.85-55.86,77.05-55.86h79.22
			c9.51,0,18.86-6.77,20.83-15.1l16.57-70.03c7.29-30.8,41.85-55.86,77.05-55.86h80.59c9.51,0,18.85-6.77,20.82-15.1L604,281.39
			c7.29-30.8,41.85-55.86,77.05-55.86h80.62c35.2,0,57.91,25.06,50.62,55.86l-83.52,353.01c-7.29,30.8-41.85,55.86-77.05,55.86
			H249.12z"/>
		<path d="M248.56,689.91c-35.2,0-57.9-25.06-50.61-55.86l16.69-70.52c7.29-30.8,41.85-55.86,77.05-55.86h79.22
			c9.51,0,18.86-6.77,20.83-15.1l16.57-70.03c7.29-30.8,41.85-55.86,77.05-55.86h80.59c9.51,0,18.85-6.77,20.82-15.1l16.69-70.53
			c7.29-30.8,41.85-55.86,77.05-55.86h80.62c35.2,0,57.91,25.06,50.62,55.86L728.2,634.05c-7.29,30.8-41.85,55.86-77.05,55.86
			H248.56z"/>
		<path d="M247.99,689.56c-35.2,0-57.9-25.06-50.61-55.86l16.69-70.52c7.29-30.8,41.85-55.86,77.05-55.86h79.22
			c9.51,0,18.86-6.77,20.83-15.1l16.57-70.03c7.29-30.8,41.85-55.86,77.05-55.86h80.59c9.51,0,18.85-6.77,20.82-15.1l16.69-70.53
			c7.29-30.8,41.85-55.86,77.05-55.86h80.62c35.2,0,57.91,25.06,50.62,55.86L727.63,633.7c-7.29,30.8-41.85,55.86-77.05,55.86
			H247.99z"/>
		<path d="M247.42,689.21c-35.2,0-57.9-25.06-50.61-55.86l16.69-70.52c7.29-30.8,41.85-55.86,77.05-55.86h79.22
			c9.51,0,18.86-6.77,20.83-15.1l16.57-70.03c7.29-30.8,41.85-55.86,77.05-55.86h80.59c9.51,0,18.85-6.77,20.82-15.1l16.69-70.53
			c7.29-30.8,41.85-55.86,77.05-55.86h80.62c35.2,0,57.91,25.06,50.62,55.86l-83.52,353.01c-7.29,30.8-41.85,55.86-77.05,55.86
			H247.42z"/>
		<path d="M246.85,688.86c-35.2,0-57.9-25.06-50.61-55.86l16.69-70.52c7.29-30.8,41.85-55.86,77.05-55.86h79.22
			c9.51,0,18.86-6.77,20.83-15.1l16.57-70.03c7.29-30.8,41.85-55.86,77.05-55.86h80.59c9.51,0,18.85-6.77,20.82-15.1l16.69-70.53
			c7.29-30.8,41.85-55.86,77.05-55.86h80.62c35.2,0,57.91,25.06,50.62,55.86L726.5,633c-7.29,30.8-41.85,55.86-77.05,55.86H246.85z"
			/>
		<path d="M246.28,688.52c-35.2,0-57.9-25.06-50.61-55.86l16.69-70.52c7.29-30.8,41.85-55.86,77.05-55.86h79.22
			c9.51,0,18.86-6.77,20.83-15.1l16.57-70.03c7.29-30.8,41.85-55.86,77.05-55.86h80.59c9.51,0,18.85-6.77,20.82-15.1l16.69-70.53
			c7.29-30.8,41.85-55.86,77.05-55.86h80.62c35.2,0,57.91,25.06,50.62,55.86l-83.52,353.01c-7.29,30.8-41.85,55.86-77.05,55.86
			H246.28z"/>
		<path d="M245.71,688.17c-35.2,0-57.9-25.06-50.61-55.86l16.69-70.52c7.29-30.8,41.85-55.86,77.05-55.86h79.22
			c9.51,0,18.86-6.77,20.83-15.1l16.57-70.03c7.29-30.8,41.85-55.86,77.05-55.86h80.59c9.51,0,18.85-6.77,20.82-15.1l16.69-70.53
			c7.29-30.8,41.85-55.86,77.05-55.86h80.62c35.2,0,57.91,25.06,50.62,55.86L725.36,632.3c-7.29,30.8-41.85,55.86-77.05,55.86
			H245.71z"/>
		<path d="M245.15,687.82c-35.2,0-57.9-25.06-50.61-55.86l16.69-70.52c7.29-30.8,41.85-55.86,77.05-55.86h79.22
			c9.51,0,18.86-6.77,20.83-15.1l16.57-70.03c7.29-30.8,41.85-55.86,77.05-55.86h80.59c9.51,0,18.85-6.77,20.82-15.1l16.69-70.53
			c7.29-30.8,41.85-55.86,77.05-55.86h80.62c35.2,0,57.91,25.06,50.62,55.86l-83.52,353.01c-7.29,30.8-41.85,55.86-77.05,55.86
			H245.15z"/>
		<path d="M244.58,687.47c-35.2,0-57.9-25.06-50.61-55.86l16.69-70.52c7.29-30.8,41.85-55.86,77.05-55.86h79.22
			c9.51,0,18.86-6.77,20.83-15.1l16.57-70.03c7.29-30.8,41.85-55.86,77.05-55.86h80.59c9.51,0,18.85-6.77,20.82-15.1l16.69-70.53
			c7.29-30.8,41.85-55.86,77.05-55.86h80.62c35.2,0,57.91,25.06,50.62,55.86L724.22,631.6c-7.29,30.8-41.85,55.86-77.05,55.86
			H244.58z"/>
		<path d="M244.01,687.12c-35.2,0-57.9-25.06-50.61-55.86l16.69-70.52c7.29-30.8,41.85-55.86,77.05-55.86h79.22
			c9.51,0,18.86-6.77,20.83-15.1l16.57-70.03c7.29-30.8,41.85-55.86,77.05-55.86h80.59c9.51,0,18.85-6.77,20.82-15.1l16.69-70.53
			c7.29-30.8,41.85-55.86,77.05-55.86h80.62c35.2,0,57.91,25.06,50.62,55.86l-83.52,353.01c-7.29,30.8-41.85,55.86-77.05,55.86
			H244.01z"/>
		<path d="M243.44,686.77c-35.2,0-57.9-25.06-50.61-55.86l16.69-70.52c7.29-30.8,41.85-55.86,77.05-55.86h79.22
			c9.51,0,18.86-6.77,20.83-15.1l16.57-70.03c7.29-30.8,41.85-55.86,77.05-55.86h80.59c9.51,0,18.85-6.77,20.82-15.1l16.69-70.53
			c7.29-30.8,41.85-55.86,77.05-55.86h80.62c35.2,0,57.91,25.06,50.62,55.86l-83.52,353.01c-7.29,30.8-41.85,55.86-77.05,55.86
			H243.44z"/>
		<path d="M242.87,686.42c-35.2,0-57.9-25.06-50.61-55.86l16.69-70.52c7.29-30.8,41.85-55.86,77.05-55.86h79.22
			c9.51,0,18.86-6.77,20.83-15.1l16.57-70.03c7.29-30.8,41.85-55.86,77.05-55.86h80.59c9.51,0,18.85-6.77,20.82-15.1l16.69-70.53
			c7.29-30.8,41.85-55.86,77.05-55.86h80.62c35.2,0,57.91,25.06,50.62,55.86l-83.52,353.01c-7.29,30.8-41.85,55.86-77.05,55.86
			H242.87z"/>
		<path d="M242.3,686.07c-35.2,0-57.9-25.06-50.61-55.86l16.69-70.52c7.29-30.8,41.85-55.86,77.05-55.86h79.22
			c9.51,0,18.86-6.77,20.83-15.1l16.57-70.03c7.29-30.8,41.85-55.86,77.05-55.86h80.59c9.51,0,18.85-6.77,20.82-15.1l16.69-70.53
			c7.29-30.8,41.85-55.86,77.05-55.86h80.62c35.2,0,57.91,25.06,50.62,55.86l-83.52,353.01c-7.29,30.8-41.85,55.86-77.05,55.86
			H242.3z"/>
		<path d="M241.73,685.73c-35.2,0-57.9-25.06-50.61-55.86l16.69-70.52c7.29-30.8,41.85-55.86,77.05-55.86h79.22
			c9.51,0,18.86-6.77,20.83-15.1l16.57-70.03c7.29-30.8,41.85-55.86,77.05-55.86h80.59c9.51,0,18.85-6.77,20.82-15.1l16.69-70.53
			c7.29-30.8,41.85-55.86,77.05-55.86h80.62c35.2,0,57.91,25.06,50.62,55.86l-83.52,353.01c-7.29,30.8-41.85,55.86-77.05,55.86
			H241.73z"/>
		<path d="M241.17,685.38c-35.2,0-57.9-25.06-50.61-55.86l16.69-70.52c7.29-30.8,41.85-55.86,77.05-55.86h79.22
			c9.51,0,18.86-6.77,20.83-15.1L400.9,418c7.29-30.8,41.85-55.86,77.05-55.86h80.59c9.51,0,18.85-6.77,20.82-15.1l16.69-70.53
			c7.29-30.8,41.85-55.86,77.05-55.86h80.62c35.2,0,57.91,25.06,50.62,55.86l-83.52,353.01c-7.29,30.8-41.85,55.86-77.05,55.86
			H241.17z"/>
		<path d="M240.6,685.03c-35.2,0-57.9-25.06-50.61-55.86l16.69-70.52c7.29-30.8,41.85-55.86,77.05-55.86h79.22
			c9.51,0,18.86-6.77,20.83-15.1l16.57-70.03c7.29-30.8,41.85-55.86,77.05-55.86h80.59c9.51,0,18.85-6.77,20.82-15.1l16.69-70.53
			c7.29-30.8,41.85-55.86,77.05-55.86h80.62c35.2,0,57.91,25.06,50.62,55.86l-83.52,353.01c-7.29,30.8-41.85,55.86-77.05,55.86
			H240.6z"/>
		<path d="M240.03,684.68c-35.2,0-57.9-25.06-50.61-55.86l16.69-70.52c7.29-30.8,41.85-55.86,77.05-55.86h79.22
			c9.51,0,18.86-6.77,20.83-15.1l16.57-70.03c7.29-30.8,41.85-55.86,77.05-55.86h80.59c9.51,0,18.85-6.77,20.82-15.1l16.69-70.53
			c7.29-30.8,41.85-55.86,77.05-55.86h80.62c35.2,0,57.91,25.06,50.62,55.86l-83.52,353.01c-7.29,30.8-41.85,55.86-77.05,55.86
			H240.03z"/>
		<path d="M239.46,684.33c-35.2,0-57.9-25.06-50.61-55.86l16.69-70.52c7.29-30.8,41.85-55.86,77.05-55.86h79.22
			c9.51,0,18.86-6.77,20.83-15.1l16.57-70.03c7.29-30.8,41.85-55.86,77.05-55.86h80.59c9.51,0,18.85-6.77,20.82-15.1l16.69-70.53
			c7.29-30.8,41.85-55.86,77.05-55.86h80.62c35.2,0,57.91,25.06,50.62,55.86L719.1,628.47c-7.29,30.8-41.85,55.86-77.05,55.86
			H239.46z"/>
		<path d="M238.89,683.98c-35.2,0-57.9-25.06-50.61-55.86l16.69-70.52c7.29-30.8,41.85-55.86,77.05-55.86h79.22
			c9.51,0,18.86-6.77,20.83-15.1l16.57-70.03c7.29-30.8,41.85-55.86,77.05-55.86h80.59c9.51,0,18.85-6.77,20.82-15.1l16.69-70.53
			c7.29-30.8,41.85-55.86,77.05-55.86h80.62c35.2,0,57.91,25.06,50.62,55.86l-83.52,353.01c-7.29,30.8-41.85,55.86-77.05,55.86
			H238.89z"/>
		<path d="M238.32,683.63c-35.2,0-57.9-25.06-50.61-55.86l16.69-70.52c7.29-30.8,41.85-55.86,77.05-55.86h79.22
			c9.51,0,18.86-6.77,20.83-15.1l16.57-70.03c7.29-30.8,41.85-55.86,77.05-55.86h80.59c9.51,0,18.85-6.77,20.82-15.1l16.69-70.53
			c7.29-30.8,41.85-55.86,77.05-55.86h80.62c35.2,0,57.91,25.06,50.62,55.86l-83.52,353.01c-7.29,30.8-41.85,55.86-77.05,55.86
			H238.32z"/>
		<path d="M237.75,683.29c-35.2,0-57.9-25.06-50.61-55.86l16.69-70.52c7.29-30.8,41.85-55.86,77.05-55.86h79.22
			c9.51,0,18.86-6.77,20.83-15.1l16.57-70.03c7.29-30.8,41.85-55.86,77.05-55.86h80.59c9.51,0,18.85-6.77,20.82-15.1l16.69-70.53
			c7.29-30.8,41.85-55.86,77.05-55.86h80.62c35.2,0,57.91,25.06,50.62,55.86L717.4,627.42c-7.29,30.8-41.85,55.86-77.05,55.86
			H237.75z"/>
		<path d="M237.19,682.94c-35.2,0-57.9-25.06-50.61-55.86l16.69-70.52c7.29-30.8,41.85-55.86,77.05-55.86h79.22
			c9.51,0,18.86-6.77,20.83-15.1l16.57-70.03c7.29-30.8,41.85-55.86,77.05-55.86h80.59c9.51,0,18.85-6.77,20.82-15.1l16.69-70.53
			c7.29-30.8,41.85-55.86,77.05-55.86h80.62c35.2,0,57.91,25.06,50.62,55.86l-83.52,353.01c-7.29,30.8-41.85,55.86-77.05,55.86
			H237.19z"/>
		<path d="M236.62,682.59c-35.2,0-57.9-25.06-50.61-55.86l16.69-70.52c7.29-30.8,41.85-55.86,77.05-55.86h79.22
			c9.51,0,18.86-6.77,20.83-15.1l16.57-70.03c7.29-30.8,41.85-55.86,77.05-55.86h80.59c9.51,0,18.85-6.77,20.82-15.1l16.69-70.53
			c7.29-30.8,41.85-55.86,77.05-55.86h80.62c35.2,0,57.91,25.06,50.62,55.86l-83.52,353.01c-7.29,30.8-41.85,55.86-77.05,55.86
			H236.62z"/>
		<path d="M236.05,682.24c-35.2,0-57.9-25.06-50.61-55.86l16.69-70.52c7.29-30.8,41.85-55.86,77.05-55.86h79.22
			c9.51,0,18.86-6.77,20.83-15.1l16.57-70.03c7.29-30.8,41.85-55.86,77.05-55.86h80.59c9.51,0,18.85-6.77,20.82-15.1l16.69-70.53
			c7.29-30.8,41.85-55.86,77.05-55.86h80.62c35.2,0,57.91,25.06,50.62,55.86l-83.52,353.01c-7.29,30.8-41.85,55.86-77.05,55.86
			H236.05z"/>
		<path d="M235.48,681.89c-35.2,0-57.9-25.06-50.61-55.86l16.69-70.52c7.29-30.8,41.85-55.86,77.05-55.86h79.22
			c9.51,0,18.86-6.77,20.83-15.1l16.57-70.03c7.29-30.8,41.85-55.86,77.05-55.86h80.59c9.51,0,18.85-6.77,20.82-15.1l16.69-70.53
			c7.29-30.8,41.85-55.86,77.05-55.86h80.62c35.2,0,57.91,25.06,50.62,55.86l-83.52,353.01c-7.29,30.8-41.85,55.86-77.05,55.86
			H235.48z"/>
		<path d="M234.91,681.54c-35.2,0-57.9-25.06-50.61-55.86l16.69-70.52c7.29-30.8,41.85-55.86,77.05-55.86h79.22
			c9.51,0,18.86-6.77,20.83-15.1l16.57-70.03c7.29-30.8,41.85-55.86,77.05-55.86h80.59c9.51,0,18.85-6.77,20.82-15.1l16.69-70.53
			c7.29-30.8,41.85-55.86,77.05-55.86h80.62c35.2,0,57.91,25.06,50.62,55.86l-83.52,353.01c-7.29,30.8-41.85,55.86-77.05,55.86
			H234.91z"/>
		<path d="M234.34,681.19c-35.2,0-57.9-25.06-50.61-55.86l16.69-70.52c7.29-30.8,41.85-55.86,77.05-55.86h79.22
			c9.51,0,18.86-6.77,20.83-15.1l16.57-70.03c7.29-30.8,41.85-55.86,77.05-55.86h80.59c9.51,0,18.85-6.77,20.82-15.1l16.69-70.53
			c7.29-30.8,41.85-55.86,77.05-55.86h80.62c35.2,0,57.91,25.06,50.62,55.86l-83.52,353.01c-7.29,30.8-41.85,55.86-77.05,55.86
			H234.34z"/>
		<path d="M233.78,680.85c-35.2,0-57.9-25.06-50.61-55.86l16.69-70.52c7.29-30.8,41.85-55.86,77.05-55.86h79.22
			c9.51,0,18.86-6.77,20.83-15.1l16.57-70.03c7.29-30.8,41.85-55.86,77.05-55.86h80.59c9.51,0,18.85-6.77,20.82-15.1l16.69-70.53
			c7.29-30.8,41.85-55.86,77.05-55.86h80.62c35.2,0,57.91,25.06,50.62,55.86l-83.52,353.01c-7.29,30.8-41.85,55.86-77.05,55.86
			H233.78z"/>
		<path d="M233.21,680.5c-35.2,0-57.9-25.06-50.61-55.86l16.69-70.52c7.29-30.8,41.85-55.86,77.05-55.86h79.22
			c9.51,0,18.86-6.77,20.83-15.1l16.57-70.03c7.29-30.8,41.85-55.86,77.05-55.86h80.59c9.51,0,18.85-6.77,20.82-15.1l16.69-70.53
			c7.29-30.8,41.85-55.86,77.05-55.86h80.62c35.2,0,57.91,25.06,50.62,55.86l-83.52,353.01c-7.29,30.8-41.85,55.86-77.05,55.86
			H233.21z"/>
		<path d="M232.64,680.15c-35.2,0-57.9-25.06-50.61-55.86l16.69-70.52c7.29-30.8,41.85-55.86,77.05-55.86h79.22
			c9.51,0,18.86-6.77,20.83-15.1l16.57-70.03c7.29-30.8,41.85-55.86,77.05-55.86h80.59c9.51,0,18.85-6.77,20.82-15.1l16.69-70.53
			c7.29-30.8,41.85-55.86,77.05-55.86h80.62c35.2,0,57.91,25.06,50.62,55.86l-83.52,353.01c-7.29,30.8-41.85,55.86-77.05,55.86
			H232.64z"/>
		<path d="M232.07,679.8c-35.2,0-57.9-25.06-50.61-55.86l16.69-70.52c7.29-30.8,41.85-55.86,77.05-55.86h79.22
			c9.51,0,18.86-6.77,20.83-15.1l16.57-70.03c7.29-30.8,41.85-55.86,77.05-55.86h80.59c9.51,0,18.85-6.77,20.82-15.1l16.69-70.53
			c7.29-30.8,41.85-55.86,77.05-55.86h80.62c35.2,0,57.91,25.06,50.62,55.86l-83.52,353.01c-7.29,30.8-41.85,55.86-77.05,55.86
			H232.07z"/>
		<path d="M231.5,679.45c-35.2,0-57.9-25.06-50.61-55.86l16.69-70.52c7.29-30.8,41.85-55.86,77.05-55.86h79.22
			c9.51,0,18.86-6.77,20.83-15.1l16.57-70.03c7.29-30.8,41.85-55.86,77.05-55.86h80.59c9.51,0,18.85-6.77,20.82-15.1l16.69-70.53
			c7.29-30.8,41.85-55.86,77.05-55.86h80.62c35.2,0,57.91,25.06,50.62,55.86l-83.52,353.01c-7.29,30.8-41.85,55.86-77.05,55.86
			H231.5z"/>
		<path d="M230.93,679.1c-35.2,0-57.9-25.06-50.61-55.86l16.69-70.52c7.29-30.8,41.85-55.86,77.05-55.86h79.22
			c9.51,0,18.86-6.77,20.83-15.1l16.57-70.03c7.29-30.8,41.85-55.86,77.05-55.86h80.59c9.51,0,18.85-6.77,20.82-15.1l16.69-70.53
			c7.29-30.8,41.85-55.86,77.05-55.86h80.62c35.2,0,57.91,25.06,50.62,55.86l-83.52,353.01c-7.29,30.8-41.85,55.86-77.05,55.86
			H230.93z"/>
		<path d="M230.36,678.75c-35.2,0-57.9-25.06-50.61-55.86l16.69-70.52c7.29-30.8,41.85-55.86,77.05-55.86h79.22
			c9.51,0,18.86-6.77,20.83-15.1l16.57-70.03c7.29-30.8,41.85-55.86,77.05-55.86h80.59c9.51,0,18.85-6.77,20.82-15.1l16.69-70.53
			c7.29-30.8,41.85-55.86,77.05-55.86h80.62c35.2,0,57.91,25.06,50.62,55.86l-83.52,353.01c-7.29,30.8-41.85,55.86-77.05,55.86
			H230.36z"/>
		<path d="M229.8,678.41c-35.2,0-57.9-25.06-50.61-55.86l16.69-70.52c7.29-30.8,41.85-55.86,77.05-55.86h79.22
			c9.51,0,18.86-6.77,20.83-15.1l16.57-70.03c7.29-30.8,41.85-55.86,77.05-55.86h80.59c9.51,0,18.85-6.77,20.82-15.1l16.69-70.53
			c7.29-30.8,41.85-55.86,77.05-55.86h80.62c35.2,0,57.91,25.06,50.62,55.86l-83.52,353.01c-7.29,30.8-41.85,55.86-77.05,55.86
			H229.8z"/>
		<path d="M229.23,678.06c-35.2,0-57.9-25.06-50.61-55.86l16.69-70.52c7.29-30.8,41.85-55.86,77.05-55.86h79.22
			c9.51,0,18.86-6.77,20.83-15.1l16.57-70.03c7.29-30.8,41.85-55.86,77.05-55.86h80.59c9.51,0,18.85-6.77,20.82-15.1l16.69-70.53
			c7.29-30.8,41.85-55.86,77.05-55.86h80.62c35.2,0,57.91,25.06,50.62,55.86l-83.52,353.01c-7.29,30.8-41.85,55.86-77.05,55.86
			H229.23z"/>
		<path d="M228.66,677.71c-35.2,0-57.9-25.06-50.61-55.86l16.69-70.52c7.29-30.8,41.85-55.86,77.05-55.86H351
			c9.51,0,18.86-6.77,20.83-15.1l16.57-70.03c7.29-30.8,41.85-55.86,77.05-55.86h80.59c9.51,0,18.85-6.77,20.82-15.1l16.69-70.53
			c7.29-30.8,41.85-55.86,77.05-55.86h80.62c35.2,0,57.91,25.06,50.62,55.86L708.3,621.84c-7.29,30.8-41.85,55.86-77.05,55.86
			H228.66z"/>
		<path d="M228.09,677.36c-35.2,0-57.9-25.06-50.61-55.86l16.69-70.52c7.29-30.8,41.85-55.86,77.05-55.86h79.22
			c9.51,0,18.86-6.77,20.83-15.1l16.57-70.03c7.29-30.8,41.85-55.86,77.05-55.86h80.59c9.51,0,18.85-6.77,20.82-15.1l16.69-70.53
			c7.29-30.8,41.85-55.86,77.05-55.86h80.62c35.2,0,57.91,25.06,50.62,55.86L707.73,621.5c-7.29,30.8-41.85,55.86-77.05,55.86
			H228.09z"/>
		<path d="M227.52,677.01c-35.2,0-57.9-25.06-50.61-55.86l16.69-70.52c7.29-30.8,41.85-55.86,77.05-55.86h79.22
			c9.51,0,18.86-6.77,20.83-15.1l16.57-70.03c7.29-30.8,41.85-55.86,77.05-55.86h80.59c9.51,0,18.85-6.77,20.82-15.1l16.69-70.53
			c7.29-30.8,41.85-55.86,77.05-55.86h80.62c35.2,0,57.91,25.06,50.62,55.86l-83.52,353.01c-7.29,30.8-41.85,55.86-77.05,55.86
			H227.52z"/>
		<path d="M226.95,676.66c-35.2,0-57.9-25.06-50.61-55.86l16.69-70.52c7.29-30.8,41.85-55.86,77.05-55.86h79.22
			c9.51,0,18.86-6.77,20.83-15.1l16.57-70.03c7.29-30.8,41.85-55.86,77.05-55.86h80.59c9.51,0,18.85-6.77,20.82-15.1l16.69-70.53
			c7.29-30.8,41.85-55.86,77.05-55.86h80.62c35.2,0,57.91,25.06,50.62,55.86L706.6,620.8c-7.29,30.8-41.85,55.86-77.05,55.86H226.95
			z"/>
		<path d="M226.38,676.31c-35.2,0-57.9-25.06-50.61-55.86l16.69-70.52c7.29-30.8,41.85-55.86,77.05-55.86h79.22
			c9.51,0,18.86-6.77,20.83-15.1l16.57-70.03c7.29-30.8,41.85-55.86,77.05-55.86h80.59c9.51,0,18.85-6.77,20.82-15.1l16.69-70.53
			c7.29-30.8,41.85-55.86,77.05-55.86h80.62c35.2,0,57.91,25.06,50.62,55.86l-83.52,353.01c-7.29,30.8-41.85,55.86-77.05,55.86
			H226.38z"/>
		<path d="M225.82,675.97c-35.2,0-57.9-25.06-50.61-55.86l16.69-70.52c7.29-30.8,41.85-55.86,77.05-55.86h79.22
			c9.51,0,18.86-6.77,20.83-15.1l16.57-70.03c7.29-30.8,41.85-55.86,77.05-55.86h80.59c9.51,0,18.85-6.77,20.82-15.1l16.69-70.53
			c7.29-30.8,41.85-55.86,77.05-55.86h80.62c35.2,0,57.91,25.06,50.62,55.86L705.46,620.1c-7.29,30.8-41.85,55.86-77.05,55.86
			H225.82z"/>
		<path d="M225.25,675.62c-35.2,0-57.9-25.06-50.61-55.86l16.69-70.52c7.29-30.8,41.85-55.86,77.05-55.86h79.22
			c9.51,0,18.86-6.77,20.83-15.1l16.57-70.03c7.29-30.8,41.85-55.86,77.05-55.86h80.59c9.51,0,18.85-6.77,20.82-15.1l16.69-70.53
			c7.29-30.8,41.85-55.86,77.05-55.86h80.62c35.2,0,57.91,25.06,50.62,55.86l-83.52,353.01c-7.29,30.8-41.85,55.86-77.05,55.86
			H225.25z"/>
		<path d="M224.68,675.27c-35.2,0-57.9-25.06-50.61-55.86l16.69-70.52c7.29-30.8,41.85-55.86,77.05-55.86h79.22
			c9.51,0,18.86-6.77,20.83-15.1l16.57-70.03c7.29-30.8,41.85-55.86,77.05-55.86h80.59c9.51,0,18.85-6.77,20.82-15.1l16.69-70.53
			c7.29-30.8,41.85-55.86,77.05-55.86h80.62c35.2,0,57.91,25.06,50.62,55.86L704.32,619.4c-7.29,30.8-41.85,55.86-77.05,55.86
			H224.68z"/>
		<path d="M224.11,674.92c-35.2,0-57.9-25.06-50.61-55.86l16.69-70.52c7.29-30.8,41.85-55.86,77.05-55.86h79.22
			c9.51,0,18.86-6.77,20.83-15.1l16.57-70.03c7.29-30.8,41.85-55.86,77.05-55.86h80.59c9.51,0,18.85-6.77,20.82-15.1l16.69-70.53
			c7.29-30.8,41.85-55.86,77.05-55.86h80.62c35.2,0,57.91,25.06,50.62,55.86l-83.52,353.01c-7.29,30.8-41.85,55.86-77.05,55.86
			H224.11z"/>
		<path d="M223.54,674.57c-35.2,0-57.9-25.06-50.61-55.86l16.69-70.52c7.29-30.8,41.85-55.86,77.05-55.86h79.22
			c9.51,0,18.86-6.77,20.83-15.1l16.57-70.03c7.29-30.8,41.85-55.86,77.05-55.86h80.59c9.51,0,18.85-6.77,20.82-15.1l16.69-70.53
			c7.29-30.8,41.85-55.86,77.05-55.86h80.62c35.2,0,57.91,25.06,50.62,55.86l-83.52,353.01c-7.29,30.8-41.85,55.86-77.05,55.86
			H223.54z"/>
		<path d="M222.97,674.22c-35.2,0-57.9-25.06-50.61-55.86l16.69-70.52c7.29-30.8,41.85-55.86,77.05-55.86h79.22
			c9.51,0,18.86-6.77,20.83-15.1l16.57-70.03c7.29-30.8,41.85-55.86,77.05-55.86h80.59c9.51,0,18.85-6.77,20.82-15.1l16.69-70.53
			c7.29-30.8,41.85-55.86,77.05-55.86h80.62c35.2,0,57.91,25.06,50.62,55.86l-83.52,353.01c-7.29,30.8-41.85,55.86-77.05,55.86
			H222.97z"/>
		<path d="M222.41,673.87c-35.2,0-57.9-25.06-50.61-55.86l16.69-70.52c7.29-30.8,41.85-55.86,77.05-55.86h79.22
			c9.51,0,18.86-6.77,20.83-15.1l16.57-70.03c7.29-30.8,41.85-55.86,77.05-55.86h80.59c9.51,0,18.85-6.77,20.82-15.1L577.29,265
			c7.29-30.8,41.85-55.86,77.05-55.86h80.62c35.2,0,57.91,25.06,50.62,55.86l-83.52,353.01c-7.29,30.8-41.85,55.86-77.05,55.86
			H222.41z"/>
		<path d="M221.84,673.53c-35.2,0-57.9-25.06-50.61-55.86l16.69-70.52c7.29-30.8,41.85-55.86,77.05-55.86h79.22
			c9.51,0,18.86-6.77,20.83-15.1l16.57-70.03c7.29-30.8,41.85-55.86,77.05-55.86h80.59c9.51,0,18.85-6.77,20.82-15.1l16.69-70.53
			c7.29-30.8,41.85-55.86,77.05-55.86h80.62c35.2,0,57.91,25.06,50.62,55.86l-83.52,353.01c-7.29,30.8-41.85,55.86-77.05,55.86
			H221.84z"/>
		<path d="M221.27,673.18c-35.2,0-57.9-25.06-50.61-55.86l16.69-70.52c7.29-30.8,41.85-55.86,77.05-55.86h79.22
			c9.51,0,18.86-6.77,20.83-15.1L381,405.8c7.29-30.8,41.85-55.86,77.05-55.86h80.59c9.51,0,18.85-6.77,20.82-15.1l16.69-70.53
			c7.29-30.8,41.85-55.86,77.05-55.86h80.62c35.2,0,57.91,25.06,50.62,55.86l-83.52,353.01c-7.29,30.8-41.85,55.86-77.05,55.86
			H221.27z"/>
		<path d="M220.7,672.83c-35.2,0-57.9-25.06-50.61-55.86l16.69-70.52c7.29-30.8,41.85-55.86,77.05-55.86h79.22
			c9.51,0,18.86-6.77,20.83-15.1l16.57-70.03c7.29-30.8,41.85-55.86,77.05-55.86h80.59c9.51,0,18.85-6.77,20.82-15.1l16.69-70.53
			c7.29-30.8,41.85-55.86,77.05-55.86h80.62c35.2,0,57.91,25.06,50.62,55.86l-83.52,353.01c-7.29,30.8-41.85,55.86-77.05,55.86
			H220.7z"/>
		<path d="M220.13,672.48c-35.2,0-57.9-25.06-50.61-55.86l16.69-70.52c7.29-30.8,41.85-55.86,77.05-55.86h79.22
			c9.51,0,18.86-6.77,20.83-15.1l16.57-70.03c7.29-30.8,41.85-55.86,77.05-55.86h80.59c9.51,0,18.85-6.77,20.82-15.1l16.69-70.53
			c7.29-30.8,41.85-55.86,77.05-55.86h80.62c35.2,0,57.91,25.06,50.62,55.86l-83.52,353.01c-7.29,30.8-41.85,55.86-77.05,55.86
			H220.13z"/>
		<path d="M219.56,672.13c-35.2,0-57.9-25.06-50.61-55.86l16.69-70.52c7.29-30.8,41.85-55.86,77.05-55.86h79.22
			c9.51,0,18.86-6.77,20.83-15.1l16.57-70.03c7.29-30.8,41.85-55.86,77.05-55.86h80.59c9.51,0,18.85-6.77,20.82-15.1l16.69-70.53
			c7.29-30.8,41.85-55.86,77.05-55.86h80.62c35.2,0,57.91,25.06,50.62,55.86l-83.52,353.01c-7.29,30.8-41.85,55.86-77.05,55.86
			H219.56z"/>
		<path d="M218.99,671.78c-35.2,0-57.9-25.06-50.61-55.86l16.69-70.52c7.29-30.8,41.85-55.86,77.05-55.86h79.22
			c9.51,0,18.86-6.77,20.83-15.1l16.57-70.03c7.29-30.8,41.85-55.86,77.05-55.86h80.59c9.51,0,18.85-6.77,20.82-15.1l16.69-70.53
			c7.29-30.8,41.85-55.86,77.05-55.86h80.62c35.2,0,57.91,25.06,50.62,55.86l-83.52,353.01c-7.29,30.8-41.85,55.86-77.05,55.86
			H218.99z"/>
		<path d="M218.43,671.43c-35.2,0-57.9-25.06-50.61-55.86l16.69-70.52c7.29-30.8,41.85-55.86,77.05-55.86h79.22
			c9.51,0,18.86-6.77,20.83-15.1l16.57-70.03c7.29-30.8,41.85-55.86,77.05-55.86h80.59c9.51,0,18.85-6.77,20.82-15.1l16.69-70.53
			c7.29-30.8,41.85-55.86,77.05-55.86h80.62c35.2,0,57.91,25.06,50.62,55.86l-83.52,353.01c-7.29,30.8-41.85,55.86-77.05,55.86
			H218.43z"/>
		<path d="M217.86,671.09c-35.2,0-57.9-25.06-50.61-55.86l16.69-70.52c7.29-30.8,41.85-55.86,77.05-55.86h79.22
			c9.51,0,18.86-6.77,20.83-15.1l16.57-70.03c7.29-30.8,41.85-55.86,77.05-55.86h80.59c9.51,0,18.85-6.77,20.82-15.1l16.69-70.53
			c7.29-30.8,41.85-55.86,77.05-55.86h80.62c35.2,0,57.91,25.06,50.62,55.86L697.5,615.22c-7.29,30.8-41.85,55.86-77.05,55.86
			H217.86z"/>
		<path d="M217.29,670.74c-35.2,0-57.9-25.06-50.61-55.86l16.69-70.52c7.29-30.8,41.85-55.86,77.05-55.86h79.22
			c9.51,0,18.86-6.77,20.83-15.1l16.57-70.03c7.29-30.8,41.85-55.86,77.05-55.86h80.59c9.51,0,18.85-6.77,20.82-15.1l16.69-70.53
			c7.29-30.8,41.85-55.86,77.05-55.86h80.62c35.2,0,57.91,25.06,50.62,55.86l-83.52,353.01c-7.29,30.8-41.85,55.86-77.05,55.86
			H217.29z"/>
		<path d="M216.72,670.39c-35.2,0-57.9-25.06-50.61-55.86L182.79,544c7.29-30.8,41.85-55.86,77.05-55.86h79.22
			c9.51,0,18.86-6.77,20.83-15.1l16.57-70.03c7.29-30.8,41.85-55.86,77.05-55.86h80.59c9.51,0,18.85-6.77,20.82-15.1l16.69-70.53
			c7.29-30.8,41.85-55.86,77.05-55.86h80.62c35.2,0,57.91,25.06,50.62,55.86l-83.52,353.01c-7.29,30.8-41.85,55.86-77.05,55.86
			H216.72z"/>
		<path d="M216.15,670.04c-35.2,0-57.9-25.06-50.61-55.86l16.69-70.52c7.29-30.8,41.85-55.86,77.05-55.86h79.22
			c9.51,0,18.86-6.77,20.83-15.1l16.57-70.03c7.29-30.8,41.85-55.86,77.05-55.86h80.59c9.51,0,18.85-6.77,20.82-15.1l16.69-70.53
			c7.29-30.8,41.85-55.86,77.05-55.86h80.62c35.2,0,57.91,25.06,50.62,55.86L695.8,614.17c-7.29,30.8-41.85,55.86-77.05,55.86
			H216.15z"/>
		<path d="M215.58,669.69c-35.2,0-57.9-25.06-50.61-55.86l16.69-70.52c7.29-30.8,41.85-55.86,77.05-55.86h79.22
			c9.51,0,18.86-6.77,20.83-15.1l16.57-70.03c7.29-30.8,41.85-55.86,77.05-55.86h80.59c9.51,0,18.85-6.77,20.82-15.1l16.69-70.53
			c7.29-30.8,41.85-55.86,77.05-55.86h80.62c35.2,0,57.91,25.06,50.62,55.86l-83.52,353.01c-7.29,30.8-41.85,55.86-77.05,55.86
			H215.58z"/>
		<path d="M215.01,669.34c-35.2,0-57.9-25.06-50.61-55.86l16.69-70.52c7.29-30.8,41.85-55.86,77.05-55.86h79.22
			c9.51,0,18.86-6.77,20.83-15.1l16.57-70.03c7.29-30.8,41.85-55.86,77.05-55.86h80.59c9.51,0,18.85-6.77,20.82-15.1l16.69-70.53
			c7.29-30.8,41.85-55.86,77.05-55.86h80.62c35.2,0,57.91,25.06,50.62,55.86l-83.52,353.01c-7.29,30.8-41.85,55.86-77.05,55.86
			H215.01z"/>
	</g>
	<path class="st1" d="M754.89,260.47l-83.52,353.01c-4.64,19.6-26.55,35.48-48.94,35.48H219.84c-22.39,0-36.78-15.89-32.15-35.48
		l16.69-70.53c4.64-19.6,26.55-35.48,48.94-35.48h79.22c22.39,0,44.3-15.89,48.94-35.48l16.57-70.03
		c4.64-19.6,26.55-35.48,48.94-35.48h80.58c22.39,0,44.3-15.89,48.94-35.48l16.69-70.53c4.64-19.6,26.55-35.48,48.94-35.48h80.62
		C745.13,224.99,759.52,240.88,754.89,260.47z"/>
</g>
</svg>
